<svg width="1279" height="1142" viewBox="0 0 1279 1142" fill="none" xmlns="http://www.w3.org/2000/svg">
<path d="M158.061 53.1423C120.547 25.4121 0 72.8953 0 72.8953V1139.94C0 1139.94 30.1319 1114.05 55.0214 1103.47C134.462 1069.72 193.279 1151.11 283.11 1139.94C390.168 1126.63 404.114 1032.71 511.199 1019.52C633.584 1004.45 686.446 1088.32 808.814 1103.47C910.993 1116.13 971.765 1116.25 1073.92 1103.47C1159.88 1092.72 1278 1054 1278 1054V1.5C1278 1.5 1087.36 63.6839 952.37 72.8953C824.73 81.6052 728.283 53.1423 625.243 53.1423C522.203 53.1423 511.199 128.736 327.127 72.8953C143.056 17.055 195.576 80.8725 158.061 53.1423Z" fill="#DA9B2A" stroke="black"/>
</svg> 