<svg width="393" height="2799" viewBox="0 0 393 2799" fill="none" xmlns="http://www.w3.org/2000/svg">
<path d="M-549.934 127.76C-592.909 59.6943 -731 176.246 -731 176.246V2795.39C-731 2795.39 -696.483 2731.84 -667.971 2705.88C-576.968 2623.04 -509.592 2822.8 -406.686 2795.39C-284.047 2762.73 -268.071 2532.19 -145.402 2499.82C-5.2038 2462.83 55.3517 2668.68 195.529 2705.88C312.579 2736.95 382.195 2737.25 499.215 2705.88C597.684 2679.49 733 2584.45 733 2584.45V1C733 1 514.614 153.636 359.978 176.246C213.761 197.625 103.277 127.76 -14.7594 127.76C-132.796 127.76 -145.402 313.311 -356.263 176.246C-567.124 39.1812 -506.96 195.827 -549.934 127.76Z" fill="#DA9B2A" stroke="black"/>
</svg>
